<?xml version="1.0" standalone="no"?><!DOCTYPE svg PUBLIC "-//W3C//DTD SVG 1.1//EN" "http://www.w3.org/Graphics/SVG/1.1/DTD/svg11.dtd"><svg t="1661915654753" class="icon" viewBox="0 0 1024 1024" version="1.1" xmlns="http://www.w3.org/2000/svg" p-id="2434" xmlns:xlink="http://www.w3.org/1999/xlink" width="200" height="200"><path d="M809.74380206 45.96622222A168.28997571 168.28997571 0 0 1 978.03377778 214.25619794v595.48760412A168.28997571 168.28997571 0 0 1 809.74380206 978.03377778H214.25619794A168.28997571 168.28997571 0 0 1 45.96622222 809.74380206V214.25619794A168.28997571 168.28997571 0 0 1 214.25619794 45.96622222h595.48760412z m90.61767942 284.79842016h-776.72296296v478.97915968c0 50.02095882 40.59672061 90.61767941 90.61767942 90.61767942h595.48760412a90.61767941 90.61767941 0 0 0 90.61767942-90.61767942V330.76464238z m-608.43298725 310.68918518a64.72691317 64.72691317 0 1 1 0 129.45382636 64.72691317 64.72691317 0 0 1 0-129.45382636z m220.07150577 0a64.72691317 64.72691317 0 1 1 0 129.45382636 64.72691317 64.72691317 0 0 1 0-129.45382636z m-220.07150577-207.12612386a64.72691317 64.72691317 0 1 1 0 129.45382757 64.72691317 64.72691317 0 0 1 0-129.45382757z m220.07150577 0a64.72691317 64.72691317 0 1 1 0 129.45382757 64.72691317 64.72691317 0 0 1 0-129.45382757z m220.07150577 0a64.72691317 64.72691317 0 1 1 0 129.45382757 64.72691317 64.72691317 0 0 1 0-129.45382757z m77.67229629-310.68918518H214.25619794A90.61767941 90.61767941 0 0 0 123.63851852 214.25619794V253.09234608h776.72296296v-38.83614814a90.61767941 90.61767941 0 0 0-90.61767942-90.61767942z" p-id="2435"></path></svg>