<?xml version="1.0" standalone="no"?><!DOCTYPE svg PUBLIC "-//W3C//DTD SVG 1.1//EN" "http://www.w3.org/Graphics/SVG/1.1/DTD/svg11.dtd"><svg t="1661915635742" class="icon" viewBox="0 0 1024 1024" version="1.1" xmlns="http://www.w3.org/2000/svg" p-id="2149" xmlns:xlink="http://www.w3.org/1999/xlink" width="200" height="200"><path d="M512 992C246.90285687 992 32 777.09714313 32 512S246.90285687 32 512 32s480 214.90285687 480 480-214.90285687 480-480 480z m-83.93142844-602.79771469a68.57142844 68.57142844 0 0 0-38.86628625 38.88l-112.63542843 287.86285781a13.71428531 13.71428531 0 0 0 17.77371468 17.77371376l287.86285688-112.63542844a68.57142844 68.57142844 0 0 0 38.88-38.88l112.63542844-287.86285688a13.71428531 13.71428531 0 0 0-17.77371375-17.77371469l-287.86285782 112.63542844zM505.14285687 539.42857156a34.28571469 34.28571469 0 1 1 0-68.57142844 34.28571469 34.28571469 0 0 1 0 68.57142844z" p-id="2150"></path></svg>