<?xml version="1.0" standalone="no"?><!DOCTYPE svg PUBLIC "-//W3C//DTD SVG 1.1//EN" "http://www.w3.org/Graphics/SVG/1.1/DTD/svg11.dtd"><svg t="1661832647388" class="icon" viewBox="0 0 1024 1024" version="1.1" xmlns="http://www.w3.org/2000/svg" p-id="4327" xmlns:xlink="http://www.w3.org/1999/xlink" width="200" height="200"><path d="M318.281956 133.5296l426.666666 725.333333-39.230578 23.074134-426.666666-725.333334 39.230578-23.074133zM896 295.822222a62.577778 62.577778 0 0 1 62.532267 60.063289l0.045511 2.514489v298.666667a62.577778 62.577778 0 0 1-60.063289 62.532266l-2.514489 0.045511h-85.333333v-39.822222h85.333333a22.755556 22.755556 0 0 0 22.698667-21.048889l0.056889-1.706666V358.4a22.755556 22.755556 0 0 0-21.048889-22.687289l-1.706667-0.068267H576V295.822222H896z m-661.333333 0v39.822222H128a22.755556 22.755556 0 0 0-22.698667 21.048889l-0.056889 1.706667v298.666667a22.755556 22.755556 0 0 0 21.048889 22.698666l1.706667 0.056889h320v39.822222H128a62.577778 62.577778 0 0 1-62.532267-60.063288l-0.045511-2.514489V358.4a62.577778 62.577778 0 0 1 60.063289-62.532267L128 295.822222h106.666667zM819.2 484.977778v45.511111H648.533333v-45.511111h170.666667z m-443.733333 0v45.511111H204.8v-45.511111h170.666667z" p-id="4328"></path></svg>