<?xml version="1.0" standalone="no"?><!DOCTYPE svg PUBLIC "-//W3C//DTD SVG 1.1//EN" "http://www.w3.org/Graphics/SVG/1.1/DTD/svg11.dtd"><svg t="1661915649316" class="icon" viewBox="0 0 1024 1024" version="1.1" xmlns="http://www.w3.org/2000/svg" p-id="2291" xmlns:xlink="http://www.w3.org/1999/xlink" width="200" height="200"><path d="M368.2304 95.93742187l292.6364448 78.4156448a91.02222187 91.02222187 0 0 1 55.296 42.4163552l263.64586667 456.61297813a91.02222187 91.02222187 0 0 1-33.31413334 124.3363552l-315.30097813 182.0444448a91.02222187 91.02222187 0 0 1-124.3363552-33.31413333l315.30097707-182.0444448a91.02222187 91.02222187 0 0 0 33.31413333-124.3363552L591.82648853 183.45528853a91.02222187 91.02222187 0 0 0-55.25048853-42.4163552l-168.39111147-45.10151146h0.04551147z" p-id="2292"></path><path d="M181.72586667 45.96622187l292.6364448 78.4156448a91.02222187 91.02222187 0 0 1 55.296 42.4163552l263.64586666 456.61297813a91.02222187 91.02222187 0 0 1-33.31413333 124.3363552l-315.30097813 182.0444448a91.02222187 91.02222187 0 0 1-124.3363552-33.31413333L56.7068448 439.86488853a91.02222187 91.02222187 0 0 1-9.10222293-69.08586666l78.4156448-292.63644374a45.51111147 45.51111147 0 0 1 55.7056-32.17635626z m58.48177813 165.56942293a68.26666667 68.26666667 0 1 0 68.26666667 118.23786667 68.26666667 68.26666667 0 0 0-68.26666667-118.23786667z" p-id="2293"></path></svg>